# xmcd
#
# Track frame offsets:
#	150
#	23642
#	44747
#	57047
#	72417
#	91277
#	106042
#	120910
#	138342
#	154217
#	172010
#	193350
#	206372
#	220235
#	244430
#	264712
#
# Disc length: 3688 seconds
#
# Revision: 1
# Processed by: cddbd v1.5.2PL0 Copyright (c) Steve Scherf et al.
# Submitted via: audiograbber 1.83.01
#
DISCID=eb0e6610
DTITLE=The Three Degrees - All the Hits
DYEAR=1998
DGENRE=Soul
TTITLE0=Woman in Love
TTITLE1=My Simple Heart
TTITLE2=When Will I See You Again
TTITLE3=The Heaven I Need
TTITLE4=Jump the Gun
TTITLE5=Get Your Love Back
TTITLE6=Dirty Ol' Man
TTITLE7=Together
TTITLE8=Take Good Care of Yourself
TTITLE9=Givin' Up, Givin' In
TTITLE10=The Runner
TTITLE11=TSOP (The Sound of Philadelphia)
TTITLE12=Long Lost Lover
TTITLE13=Red Light
TTITLE14=Take Me Away
TTITLE15=Year of Decision
EXTD=
EXTT0=
EXTT1=
EXTT2=
EXTT3=
EXTT4=
EXTT5=
EXTT6=
EXTT7=
EXTT8=
EXTT9=
EXTT10=
EXTT11=
EXTT12=
EXTT13=
EXTT14=
EXTT15=
PLAYORDER=
